<?xml version="1.0" standalone="no"?>
<!DOCTYPE svg PUBLIC "-//W3C//DTD SVG 20010904//EN"
 "http://www.w3.org/TR/2001/REC-SVG-20010904/DTD/svg10.dtd">
<svg version="1.0" xmlns="http://www.w3.org/2000/svg"
 width="2000.000000pt" height="2000.000000pt" viewBox="0 0 2000.000000 2000.000000"
 preserveAspectRatio="xMidYMid meet">
<metadata>
Created by potrace 1.14, written by Peter Selinger 2001-2017
</metadata>
<g transform="translate(0.000000,2000.000000) scale(0.100000,-0.100000)"
fill="#000000" stroke="none">
<path d="M0 10000 l0 -10000 10000 0 10000 0 0 10000 0 10000 -10000 0 -10000
0 0 -10000z m11560 5010 l0 -920 1990 0 1990 0 0 -5130 0 -5130 -1560 0 -1560
0 0 4920 0 4920 -430 0 -430 0 0 -3995 0 -3995 -1560 0 -1560 0 0 3995 0 3995
-435 0 -435 0 0 -4920 0 -4920 -1560 0 -1560 0 0 5130 0 5130 1995 0 1995 0 0
920 0 920 1560 0 1560 0 0 -920z"/>
</g>
</svg>
